<?xml version="1.0" encoding="UTF-8" standalone="no"?>
<svg width="55px" height="33px" viewBox="0 0 55 33" version="1.1" xmlns="http://www.w3.org/2000/svg" xmlns:xlink="http://www.w3.org/1999/xlink" xmlns:sketch="http://www.bohemiancoding.com/sketch/ns">
    <!-- Generator: Sketch 3.1 (8751) - http://www.bohemiancoding.com/sketch -->
    <title>Boat</title>
    <desc>Created with Sketch.</desc>
    <defs></defs>
    <g id="Icons" stroke="none" stroke-width="1" fill="none" fill-rule="evenodd" sketch:type="MSPage">
        <g id="Automotive" sketch:type="MSArtboardGroup" transform="translate(-196.000000, -82.000000)" fill="#231F1F">
            <g id="Boat" sketch:type="MSLayerGroup" transform="translate(196.000000, 82.000000)">
                <path d="M16.9119042,16.727702 L16.0429042,13.249702 C15.9089042,12.714702 16.2349042,12.171702 16.7699042,12.036702 C17.3059042,11.902702 17.8489042,12.228702 17.9829042,12.764702 L18.6249042,15.329702 L27.0729042,13.762702 C27.6169042,13.663702 28.1379042,14.020702 28.2389042,14.563702 C28.3399042,15.106702 27.9819042,15.628702 27.4389042,15.729702 L18.0649042,17.467702 C18.0039042,17.479702 17.9419042,17.484702 17.8819042,17.484702 C17.4309042,17.484702 17.0259042,17.178702 16.9119042,16.727702 L16.9119042,16.727702 Z M18.1779042,4.55570203 C18.3709042,4.84470203 18.6879042,5.00070203 19.0109042,5.00070203 C19.2009042,5.00070203 19.3939042,4.94670203 19.5649042,4.83270203 C20.0239042,4.52670203 20.1479042,3.90570203 19.8419042,3.44670203 L17.8419042,0.446702031 C17.5349042,-0.0132979693 16.9149042,-0.139297969 16.4549042,0.168702031 C15.9959042,0.474702031 15.8719042,1.09570203 16.1779042,1.55570203 L18.1779042,4.55570203 L18.1779042,4.55570203 Z M54.6669042,9.83370203 C54.2109042,9.18370203 53.4449042,8.87170203 52.6649042,9.01470203 L33.0709042,12.650702 L25.7199042,5.29870203 C25.4599042,5.03770203 25.0769042,4.94170203 24.7249042,5.04770203 L4.72490416,11.048702 C4.21390416,11.202702 3.91290416,11.730702 4.04290416,12.249702 L4.76890416,15.154702 C4.90290416,15.690702 5.44590416,16.016702 5.98190416,15.882702 C6.51690416,15.748702 6.84290416,15.205702 6.70890416,14.669702 L6.21490416,12.690702 L24.7279042,7.13470203 L32.0279042,14.436702 C32.2609042,14.670702 32.5919042,14.772702 32.9179042,14.713702 L53.0299042,10.985702 L44.2969042,25.856702 C33.9719042,30.679702 16.9099042,32.415702 5.75790416,29.791702 L2.34290416,20.384702 L6.83490416,19.551702 L6.83590416,19.551702 L13.6219042,18.292702 C14.1649042,18.191702 14.5229042,17.669702 14.4229042,17.126702 C14.3219042,16.583702 13.8009042,16.226702 13.2559042,16.325702 L6.41090416,17.595702 L6.40990416,17.596702 L0.817904155,18.633702 C0.528904155,18.686702 0.277904155,18.864702 0.131904155,19.119702 C-0.0140958447,19.375702 -0.0400958447,19.681702 0.0599041553,19.957702 L4.06090416,30.977702 C4.17390416,31.289702 4.43490416,31.525702 4.75690416,31.606702 C8.50990416,32.550702 12.9549042,32.998702 17.6179042,32.998702 C27.3889042,32.998702 38.1159042,31.029702 45.4339042,27.531702 C45.6139042,27.445702 45.7639042,27.307702 45.8649042,27.135702 L54.7539042,11.997702 C55.1559042,11.312702 55.1229042,10.483702 54.6669042,9.83370203 L54.6669042,9.83370203 Z" sketch:type="MSShapeGroup"></path>
            </g>
        </g>
    </g>
</svg>