<?xml version="1.0" encoding="UTF-8" standalone="no"?>
<svg width="56px" height="24px" viewBox="0 0 56 24" version="1.1" xmlns="http://www.w3.org/2000/svg" xmlns:xlink="http://www.w3.org/1999/xlink" xmlns:sketch="http://www.bohemiancoding.com/sketch/ns">
    <!-- Generator: Sketch 3.1 (8751) - http://www.bohemiancoding.com/sketch -->
    <title>Jetski</title>
    <desc>Created with Sketch.</desc>
    <defs></defs>
    <g id="Icons" stroke="none" stroke-width="1" fill="none" fill-rule="evenodd" sketch:type="MSPage">
        <g id="Automotive" sketch:type="MSArtboardGroup" transform="translate(-792.000000, -568.000000)" fill="#231F1F">
            <g id="Jetski" sketch:type="MSLayerGroup" transform="translate(792.000000, 568.000000)">
                <path d="M11,14.0005463 C10.447,14.0005463 10,13.5525463 10,13.0005463 C10,12.4485463 10.447,12.0005463 11,12.0005463 L30,12.0005463 C30.553,12.0005463 31,12.4485463 31,13.0005463 C31,13.5525463 30.553,14.0005463 30,14.0005463 L11,14.0005463 L11,14.0005463 Z M55.905,10.5765463 C55.741,10.2255463 55.388,10.0005463 55,10.0005463 L50.272,10.0005463 L33.507,0.138546254 C33.138,-0.0784537455 32.667,-0.0354537455 32.342,0.248546254 L30.29,2.04354625 L24.316,0.0525462545 C23.787,-0.124453746 23.227,0.160546254 23.052,0.684546254 C22.877,1.20854625 23.16,1.77454625 23.683,1.94954625 L28.545,3.57054625 L24.748,6.89254625 L7.267,2.03754625 C6.734,1.88854625 6.183,2.20054625 6.036,2.73354625 C5.889,3.26554625 6.2,3.81654625 6.732,3.96454625 L24.732,8.96454625 C25.055,9.05254625 25.404,8.97554625 25.658,8.75354625 L33.115,2.22854625 L41.386,7.09354625 C39.906,8.09754625 37.818,8.27654625 36.102,7.42954625 L33.442,6.11654625 C32.95,5.87254625 32.348,6.07554625 32.104,6.57054625 C31.858,7.06554625 32.061,7.66454625 32.558,7.90954625 L35.217,9.22254625 C36.229,9.72354625 37.343,9.96454625 38.448,9.96454625 C40.22,9.96454625 41.97,9.34454625 43.246,8.18754625 L49.493,11.8625463 C49.646,11.9525463 49.821,12.0005463 50,12.0005463 L52.769,12.0005463 C46.68,18.3815463 38.273,22.0005463 29.38,22.0005463 L6.277,22.0005463 L2,19.4345463 L2,14.0005463 L6,14.0005463 C6.314,14.0005463 6.611,13.8525463 6.8,13.6005463 L9.8,9.60054625 C10.132,9.15854625 10.042,8.53154625 9.6,8.20054625 C9.158,7.86954625 8.531,7.96054625 8.2,8.40054625 L5.5,12.0005463 L1,12.0005463 C0.447,12.0005463 0,12.4485463 0,13.0005463 L0,20.0005463 C0,20.3515463 0.185,20.6775463 0.485,20.8585463 L5.485,23.8585463 C5.641,23.9515463 5.818,24.0005463 6,24.0005463 L29.38,24.0005463 C39.604,24.0005463 49.223,19.4955463 55.769,11.6405463 C56.017,11.3425463 56.07,10.9275463 55.905,10.5765463 L55.905,10.5765463 Z" sketch:type="MSShapeGroup"></path>
            </g>
        </g>
    </g>
</svg>