<?xml version="1.0" encoding="utf-8"?>
<!-- Generator: Adobe Illustrator 17.0.0, SVG Export Plug-In . SVG Version: 6.00 Build 0)  -->
<!DOCTYPE svg PUBLIC "-//W3C//DTD SVG 1.1//EN" "http://www.w3.org/Graphics/SVG/1.1/DTD/svg11.dtd">
<svg version="1.1" id="Layer_1" xmlns="http://www.w3.org/2000/svg" xmlns:xlink="http://www.w3.org/1999/xlink" x="0px" y="0px"
	 width="175.123px" height="175.125px" viewBox="0 0 175.123 175.125" enable-background="new 0 0 175.123 175.125"
	 xml:space="preserve">
<circle fill="#FFFFFF" cx="87.562" cy="87.562" r="87.562"/>
<g>
	<path fill="none" stroke="#1C75BC" stroke-width="6.1249" stroke-miterlimit="10" d="M116.482,152.605
		c-7.269,0-7.269-7.074-14.537-7.074c-7.266,0-7.266,7.074-14.532,7.074c-7.271,0-7.271-7.074-14.542-7.074
		s-7.271,7.074-14.542,7.074"/>
</g>
<path fill="#1C75BB" d="M108.824,22.637h-21.33H66.16c-5.836,9.695-11.203,25.518-9.189,43.723
	c2.014,18.209,11.412,38.805,30.697,65.527c19.289-26.723,28.598-47.318,30.52-65.527C120.117,48.154,114.66,32.332,108.824,22.637z
	 M68.566,31.613h37.982c1.975,4.338,4.242,10.631,5.32,18.309H63.326C64.365,42.234,66.609,35.943,68.566,31.613z M97.959,104.602
	H77.113c-3.688-6.463-6.643-12.541-8.908-18.309h38.605C104.564,92.066,101.629,98.141,97.959,104.602z M112.086,65.635
	c-0.396,3.752-1.145,7.617-2.254,11.627H65.361c-1.133-4.024-1.902-7.9-2.318-11.66c-0.254-2.285-0.371-4.502-0.383-6.648h49.777
	C112.436,61.109,112.33,63.338,112.086,65.635z"/>
<g>
</g>
<g>
</g>
<g>
</g>
<g>
</g>
<g>
</g>
<g>
</g>
</svg>
